<svg width="130" height="130" viewBox="0 0 130 130" fill="none" xmlns="http://www.w3.org/2000/svg">
<path fill-rule="evenodd" clip-rule="evenodd" d="M2.86441 124.367C4.44637 124.367 5.72881 125.628 5.72881 127.183C5.72881 128.739 4.44637 130 2.86441 130C1.28244 130 0 128.739 0 127.183C0 125.628 1.28244 124.367 2.86441 124.367ZM14.5424 102.267C14.5424 99.1555 11.9775 96.6333 8.81356 96.6333C5.64962 96.6333 3.08475 99.1555 3.08475 102.267C3.08475 105.378 5.64962 107.9 8.81356 107.9C11.9775 107.9 14.5424 105.378 14.5424 102.267ZM26 74.75C26 70.0832 22.1527 66.3 17.4068 66.3C12.6609 66.3 8.81356 70.0832 8.81356 74.75C8.81356 79.4168 12.6609 83.2 17.4068 83.2C22.1527 83.2 26 79.4168 26 74.75ZM78.8814 14.3C78.8814 6.40233 72.3705 0 64.339 0C56.3075 0 49.7966 6.40233 49.7966 14.3C49.7966 22.1977 56.3075 28.6 64.339 28.6C72.3705 28.6 78.8814 22.1977 78.8814 14.3ZM64.1186 58.0667C68.8645 58.0667 72.7119 61.8499 72.7119 66.5167C72.7119 71.1835 68.8645 74.9667 64.1186 74.9667C59.3727 74.9667 55.5254 71.1835 55.5254 66.5167C55.5254 61.8499 59.3727 58.0667 64.1186 58.0667ZM119.864 96.6333C123.028 96.6333 125.593 99.1555 125.593 102.267C125.593 105.378 123.028 107.9 119.864 107.9C116.7 107.9 114.136 105.378 114.136 102.267C114.136 99.1555 116.7 96.6333 119.864 96.6333ZM90.339 91C90.339 87.8888 87.7741 85.3667 84.6102 85.3667C81.4462 85.3667 78.8814 87.8888 78.8814 91C78.8814 94.1112 81.4462 96.6333 84.6102 96.6333C87.7741 96.6333 90.339 94.1112 90.339 91ZM44.0678 85.3667C47.2317 85.3667 49.7966 87.8888 49.7966 91C49.7966 94.1112 47.2317 96.6333 44.0678 96.6333C40.9039 96.6333 38.339 94.1112 38.339 91C38.339 87.8888 40.9039 85.3667 44.0678 85.3667ZM67.8644 105.95C67.8644 104.394 66.582 103.133 65 103.133C63.418 103.133 62.1356 104.394 62.1356 105.95C62.1356 107.506 63.418 108.767 65 108.767C66.582 108.767 67.8644 107.506 67.8644 105.95ZM98.0508 107.9C99.6328 107.9 100.915 109.161 100.915 110.717C100.915 112.272 99.6328 113.533 98.0508 113.533C96.4689 113.533 95.1864 112.272 95.1864 110.717C95.1864 109.161 96.4689 107.9 98.0508 107.9ZM130 127.183C130 125.628 128.718 124.367 127.136 124.367C125.554 124.367 124.271 125.628 124.271 127.183C124.271 128.739 125.554 130 127.136 130C128.718 130 130 128.739 130 127.183ZM34.8136 110.717C34.8136 109.161 33.5311 107.9 31.9492 107.9C30.3672 107.9 29.0847 109.161 29.0847 110.717C29.0847 112.272 30.3672 113.533 31.9492 113.533C33.5311 113.533 34.8136 112.272 34.8136 110.717ZM111.271 66.3C116.017 66.3 119.864 70.0832 119.864 74.75C119.864 79.4168 116.017 83.2 111.271 83.2C106.525 83.2 102.678 79.4168 102.678 74.75C102.678 70.0832 106.525 66.3 111.271 66.3ZM49.7966 45.5C49.7966 39.0383 44.4696 33.8 37.8983 33.8C31.3271 33.8 26 39.0383 26 45.5C26 51.9617 31.3271 57.2 37.8983 57.2C44.4696 57.2 49.7966 51.9617 49.7966 45.5ZM90.7797 33.8C97.3509 33.8 102.678 39.0383 102.678 45.5C102.678 51.9617 97.3509 57.2 90.7797 57.2C84.2084 57.2 78.8814 51.9617 78.8814 45.5C78.8814 39.0383 84.2084 33.8 90.7797 33.8Z" fill="url(#paint0_linear_303_105)"/>
<defs>
<linearGradient id="paint0_linear_303_105" x1="65.2203" y1="8.4204e-07" x2="65.2203" y2="133.9" gradientUnits="userSpaceOnUse">
<stop stop-color="#15255F"/>
<stop offset="0.392796" stop-color="#006680"/>
<stop offset="1" stop-color="#FF9500"/>
</linearGradient>
</defs>
</svg>
